<?xml version="1.0" encoding="utf-8"?>
<!-- Generator: Adobe Illustrator 16.0.4, SVG Export Plug-In . SVG Version: 6.00 Build 0)  -->
<!DOCTYPE svg PUBLIC "-//W3C//DTD SVG 1.1//EN" "http://www.w3.org/Graphics/SVG/1.1/DTD/svg11.dtd">
<svg version="1.1" id="Layer_1" xmlns="http://www.w3.org/2000/svg" xmlns:xlink="http://www.w3.org/1999/xlink" x="0px" y="0px"
	 width="300px" height="300px" viewBox="0 0 300 300" enable-background="new 0 0 300 300" xml:space="preserve">
<g>
	<polygon points="143,76 157,76 157,65 169,65 169,53 131,53 131,65 143,65 	"/>
	<polygon points="150.344,245.072 156.096,196 143.828,196 	"/>
	<path d="M169,183V87h-38v96H169z M143,110h14v52h-14V110z"/>
</g>
<polygon id="RightArrowOpen_8_" points="258.571,149.754 203.287,205.037 189.465,191.215 230.93,149.754 189.465,108.287 
	203.287,94.467 "/>
<polygon id="RightArrowOpen_7_" points="42.175,149.754 97.459,94.467 111.281,108.29 69.816,149.754 111.281,191.215 
	97.459,205.037 "/>
</svg>
